<?xml version="1.0" standalone="no"?>
<!DOCTYPE svg PUBLIC "-//W3C//DTD SVG 20010904//EN"
 "http://www.w3.org/TR/2001/REC-SVG-20010904/DTD/svg10.dtd">
<svg version="1.0" xmlns="http://www.w3.org/2000/svg"
 width="153.000000pt" height="153.000000pt" viewBox="0 0 153.000000 153.000000"
 preserveAspectRatio="xMidYMid meet">
<metadata>
Created by potrace 1.11, written by Peter Selinger 2001-2013
</metadata>
<g transform="translate(0.000000,153.000000) scale(0.100000,-0.100000)"
fill="#000000" stroke="none">
<path d="M75 1521 c-11 -5 -31 -21 -45 -36 l-25 -27 0 -694 0 -694 33 -32 32
-33 695 0 695 0 32 33 33 32 0 695 0 695 -33 32 -32 33 -683 2 c-375 1 -691
-2 -702 -6z m805 -676 l0 -505 60 0 60 0 0 -75 0 -75 -195 0 -195 0 0 75 0 75
60 0 60 0 0 430 0 429 -94 3 -95 3 46 73 45 72 124 0 124 0 0 -505z"/>
</g>
</svg>
