<?xml version="1.0" encoding="utf-8"?>
<!-- Generator: Adobe Illustrator 22.0.0, SVG Export Plug-In . SVG Version: 6.00 Build 0)  -->
<svg version="1.1" id="圖層_1" xmlns="http://www.w3.org/2000/svg" xmlns:xlink="http://www.w3.org/1999/xlink" x="0px" y="0px"
	 viewBox="0 0 342 348" style="enable-background:new 0 0 342 348;" xml:space="preserve">
<style type="text/css">
	.st0{fill:#231916;}
	.st1{filter:url(#Adobe_OpacityMaskFilter);}
	.st2{fill:#FFFFFF;}
	.st3{mask:url(#b_1_);fill:#231916;}
	.st4{filter:url(#Adobe_OpacityMaskFilter_1_);}
	.st5{mask:url(#b_2_);fill:#9F9FA0;}
	.st6{filter:url(#Adobe_OpacityMaskFilter_2_);}
	.st7{mask:url(#b_3_);fill:#9F9FA0;}
	.st8{filter:url(#Adobe_OpacityMaskFilter_3_);}
	.st9{mask:url(#b_4_);fill:#231916;}
</style>
<title>Page 1</title>
<g>
	<path class="st0" d="M238,221h10v-77h-10V221z M201.2,134.5c3.6,4.3,5.3,9.5,5.3,15.8c0,5.2-1.2,9.8-3.7,13.7
		c-2.5,3.9-6,6.9-10.5,8.9c-4.6,2-10.9,3.1-18.9,3.1l20.8,44.4H182l-20.5-44.4h0v-9.3l11.1,0.1c6.4,0,11.1-0.6,14.2-1.8
		c3.1-1.2,5.5-3.1,7.2-5.8c1.7-2.7,2.6-5.6,2.6-8.9c0-3.2-0.9-6.1-2.6-8.7c-1.7-2.6-4-4.5-6.9-5.6c-2.8-1.1-7.5-1.7-14.1-1.7h-11.5
		v-9.4h4.1c10.6,0,17.9,0.4,21.6,1.3C193,127.5,197.6,130.2,201.2,134.5L201.2,134.5z M103.6,179.8L103.6,179.8l0.9-1.9L103.6,179.8
		z M129.5,124.9l-10.6,0l-45.3,95.6h10.7L129.5,124.9z M166,220.4l-35.6-76.1l-5.3,11.4l30.6,64.7L166,220.4z M131.1,191l-4.6-9.6
		h-13.3l-4.5,9.6H131.1z"/>
	<defs>
		<filter id="Adobe_OpacityMaskFilter" filterUnits="userSpaceOnUse" x="0" y="3.4" width="341.6" height="341.5">
			<feColorMatrix  type="matrix" values="1 0 0 0 0  0 1 0 0 0  0 0 1 0 0  0 0 0 1 0"/>
		</filter>
	</defs>
	<mask maskUnits="userSpaceOnUse" x="0" y="3.4" width="341.6" height="341.5" id="b_1_">
		<g class="st1">
			<path id="a_1_" class="st2" d="M0,474h341.6V0.4H0V474z"/>
		</g>
	</mask>
	<path class="st3" d="M216.6,134.2H268v-9.4h-51.4V134.2z M20.8,344.9h9.8v-76.4h-9.8V344.9z M147.8,344.9h9.6v-95.6h-9.6V344.9z
		 M332,344.9h9.6v-95.6H332V344.9z M248.6,344.9h9.6v-95.6h-9.6V344.9z M267.6,344.9h35.6v-9.4h-35.6V344.9z M267.6,258.7h35.6v-9.4
		h-35.6V258.7z M267.6,301.8h35.6v-9.4h-35.6V301.8z M75.3,304.3L75.3,304.3l0.9-1.9L75.3,304.3z M101.2,249.4l-10.6,0l-45.3,95.6
		H56L101.2,249.4z M137.7,344.9l-35.6-76.1l-5.3,11.4l30.6,64.7H137.7z M102.8,315.5l-4.6-9.5H85l-4.5,9.5H102.8z M234,259.1
		c-3.5-4.2-8-6.9-13.4-8.3c-3.8-1-11.2-1.4-22.2-1.4H198v9.4h7.8c6.5,0,11.1,0.6,14,1.7c2.8,1.1,5.1,3,6.9,5.7
		c1.7,2.7,2.6,5.6,2.6,8.8c0,3.3-0.9,6.3-2.6,8.9c-1.7,2.7-4.1,4.6-7.2,5.8c-3,1.2-7.8,1.8-14.4,1.8l-7.1-0.1v9.2
		c10.6-0.1,18-0.6,22.1-1.5c6-1.4,10.6-4.2,14-8.4c3.4-4.1,5.1-9.4,5.1-15.8C239.2,268.5,237.4,263.2,234,259.1 M188.8,249.3h-9.6
		v95.6h9.6L188.8,249.3z M0,258.7h51.4v-9.4H0V258.7z M247.2,99h45.1v-9.4h-45.1L247.2,99z M247.2,12.8h45.1V3.4h-45.1L247.2,12.8z
		 M247.2,55.9h45.1v-9.4h-45.1L247.2,55.9z M228.3,76.7l-46.2-53v14.2L235.6,99h2.2V3.4h-9.5L228.3,76.7z"/>
	<defs>
		<filter id="Adobe_OpacityMaskFilter_1_" filterUnits="userSpaceOnUse" x="147.7" y="3.4" width="34.5" height="95.6">
			<feColorMatrix  type="matrix" values="1 0 0 0 0  0 1 0 0 0  0 0 1 0 0  0 0 0 1 0"/>
		</filter>
	</defs>
	<mask maskUnits="userSpaceOnUse" x="147.7" y="3.4" width="34.5" height="95.6" id="b_2_">
		<g class="st4">
			<path id="a_2_" class="st2" d="M0,474h341.6V0.4H0V474z"/>
		</g>
	</mask>
	<path class="st5" d="M172.3,3.4h-18.8l-5.7,9.4h15.1v76.9H152V99h30.2v-9.4h-9.9L172.3,3.4z"/>
	<defs>
		<filter id="Adobe_OpacityMaskFilter_2_" filterUnits="userSpaceOnUse" x="144.8" y="1.8" width="39" height="98.8">
			<feColorMatrix  type="matrix" values="1 0 0 0 0  0 1 0 0 0  0 0 1 0 0  0 0 0 1 0"/>
		</filter>
	</defs>
	<mask maskUnits="userSpaceOnUse" x="144.8" y="1.8" width="39" height="98.8" id="b_3_">
		<g class="st6">
			<path id="a_3_" class="st2" d="M0,474h341.6V0.4H0V474z"/>
		</g>
	</mask>
	<path class="st7" d="M153.6,97.4h27v-6.1h-9.9V5h-16.3l-3.8,6.1h13.8v80.1h-10.8V97.4z M183.9,100.6h-33.5V88h10.8V14.4h-16.3
		l7.7-12.6h21.4V88h9.9C183.9,88,183.9,100.6,183.9,100.6z"/>
	<defs>
		<filter id="Adobe_OpacityMaskFilter_3_" filterUnits="userSpaceOnUse" x="49.3" y="0.4" width="101.1" height="100.9">
			<feColorMatrix  type="matrix" values="1 0 0 0 0  0 1 0 0 0  0 0 1 0 0  0 0 0 1 0"/>
		</filter>
	</defs>
	<mask maskUnits="userSpaceOnUse" x="49.3" y="0.4" width="101.1" height="100.9" id="b_4_">
		<g class="st8">
			<path id="a_4_" class="st2" d="M0,474h341.6V0.4H0V474z"/>
		</g>
	</mask>
	<path class="st9" d="M135.6,15.4c-6.7-5.9-16-8.3-24.8-7.4c-1.2,0.1-2.3,0.3-3.4,0.5c-1.8,0.3-3.7,1.1-5.5,1.7
		c6.4,0.3,12.5,2.1,18.2,5.4c6.4,3.7,11.4,8.6,15,14.7c3.5,6.1,5.3,13,5.3,20.6c0,7.6-1.8,14.6-5.3,20.8
		c-3.6,6.2-8.5,11.2-14.8,14.8c-6.3,3.6-13.2,5.4-20.7,5.4C88.5,91.9,78.9,88,71,80.2c-7.9-7.8-11.9-17.4-11.9-28.8
		c0-7.7,1.8-14.6,5.4-20.9c8.9-15.6,24.6-24.8,42.1-28c0.4-0.1,1.4-0.5,1.8-0.3c-2.3-0.8-6.9-1.9-9.2-1.9c-9,0-17.3,2.7-25,7.1
		C66.5,11.9,60.4,18.1,56,25.9c-4.5,7.8-6.7,16.4-6.7,25.5c0,13.8,4.9,25.5,14.7,35.2c9.8,9.7,21.8,14.6,36,14.6
		c14.1,0,26-4.9,35.7-14.6c9.8-9.8,14.6-21.6,14.6-35.6c0-11.8-3.8-23.2-11.5-32.2C137.9,17.6,136.8,16.5,135.6,15.4"/>
</g>
</svg>
