<?xml version="1.0" encoding="utf-8"?>
<!-- Generator: Adobe Illustrator 22.0.0, SVG Export Plug-In . SVG Version: 6.00 Build 0)  -->
<svg version="1.1" id="圖層_1" xmlns="http://www.w3.org/2000/svg" xmlns:xlink="http://www.w3.org/1999/xlink" x="0px" y="0px"
	 viewBox="0 0 90.3 30" style="enable-background:new 0 0 90.3 30;" xml:space="preserve">
<style type="text/css">
	.st0{fill:#D8D8D8;}
	.st1{fill:#101010;}
	.st2{enable-background:new    ;}
</style>
<title>Rectangle</title>
<g transform="translate(-1192 -14)">
	<path class="st0" d="M1194.6,14h85.1c1.4,0,2.6,0.9,2.6,2v26c0,1.1-1.2,2-2.6,2h-85.1c-1.4,0-2.6-0.9-2.6-2V16
		C1192,14.9,1193.2,14,1194.6,14z"/>
	<path class="st1" d="M1215,29l-4.6-4v2.4h-5.4v3.2h5.4V33L1215,29z M1202.6,23.6h6.4V22h-6.4c-0.4,0-0.8,0.2-1.1,0.5
		c-0.3,0.3-0.5,0.7-0.5,1.1v10.9c0,0.4,0.2,0.8,0.5,1.1c0.3,0.3,0.7,0.5,1.1,0.5h6.4v-1.5h-6.4V23.6z"/>
	<g class="st2">
		<path d="M1227.2,23.5c0.7,0.5,1.1,1.3,1.2,2.4h-1.5c-0.1-0.6-0.4-1.1-0.8-1.4c-0.4-0.3-1-0.4-1.7-0.4c-0.7,0-1.2,0.1-1.5,0.3
			c-0.4,0.2-0.6,0.6-0.6,1.1c0,0.4,0.2,0.8,0.7,1.1c0.2,0.1,0.8,0.3,1.7,0.6c1.3,0.4,2.2,0.7,2.6,1c0.9,0.5,1.3,1.2,1.3,2.2
			c0,0.9-0.4,1.6-1.1,2.1c-0.7,0.5-1.7,0.8-2.9,0.8c-1.2,0-2.2-0.3-2.9-0.7c-0.8-0.6-1.3-1.5-1.4-2.8h1.5c0.1,0.8,0.4,1.4,0.8,1.7
			c0.4,0.3,1,0.5,1.9,0.5c0.8,0,1.4-0.1,1.8-0.4s0.7-0.6,0.7-1.1c0-0.6-0.3-1-1-1.3c-0.2-0.1-0.9-0.3-2-0.7c-1.2-0.4-2-0.7-2.3-0.8
			c-0.8-0.5-1.1-1.1-1.1-2c0-0.9,0.4-1.6,1.1-2.1c0.7-0.5,1.6-0.7,2.6-0.7C1225.6,22.8,1226.6,23,1227.2,23.5z"/>
		<path d="M1231.7,23.1c0.2,0.2,0.3,0.4,0.3,0.7c0,0.3-0.1,0.5-0.3,0.7c-0.2,0.2-0.4,0.3-0.7,0.3c-0.3,0-0.5-0.1-0.7-0.3
			c-0.2-0.2-0.3-0.4-0.3-0.7c0-0.3,0.1-0.5,0.3-0.7c0.2-0.2,0.4-0.3,0.7-0.3C1231.2,22.9,1231.5,22.9,1231.7,23.1z M1231.7,25.8V33
			h-1.5v-7.2H1231.7z"/>
		<path d="M1238.9,26.7v-1h1.5v6.8c0,2.3-1.1,3.4-3.4,3.4c-1,0-1.8-0.2-2.3-0.6c-0.5-0.4-0.9-1-1-1.8h1.5c0.1,0.4,0.3,0.7,0.5,0.9
			c0.3,0.2,0.7,0.3,1.3,0.3c1.3,0,1.9-0.7,1.9-2v-1.1c-0.5,0.8-1.3,1.2-2.2,1.2c-1,0-1.8-0.3-2.4-1c-0.6-0.7-0.9-1.5-0.9-2.6
			s0.3-2,0.9-2.6c0.6-0.7,1.4-1,2.4-1C1237.7,25.6,1238.4,25.9,1238.9,26.7z M1235.5,27.4c-0.4,0.4-0.5,1-0.5,1.8
			c0,0.7,0.1,1.3,0.4,1.7c0.3,0.5,0.8,0.7,1.6,0.7c0.6,0,1.1-0.2,1.5-0.6c0.3-0.4,0.5-1,0.5-1.8c0-0.8-0.2-1.4-0.5-1.8
			c-0.4-0.4-0.9-0.7-1.5-0.7S1235.8,27,1235.5,27.4z"/>
		<path d="M1248.5,28.5V33h-1.5v-4.3c0-1.2-0.6-1.8-1.7-1.8c-0.4,0-0.8,0.1-1.1,0.4c-0.3,0.3-0.5,0.8-0.6,1.4V33h-1.5v-7.2h1.5v0.9
			c0.3-0.4,0.6-0.6,1-0.8c0.4-0.2,0.8-0.3,1.2-0.3C1247.5,25.6,1248.5,26.5,1248.5,28.5z"/>
		<path d="M1260.8,26.7c0.6,0.7,1,1.6,1,2.7c0,1.1-0.3,2-1,2.7c-0.7,0.7-1.6,1.1-2.6,1.1s-2-0.4-2.6-1.1c-0.6-0.7-1-1.6-1-2.7
			c0-1.1,0.3-2,1-2.7c0.7-0.7,1.5-1.1,2.6-1.1S1260.1,25.9,1260.8,26.7z M1256.5,27.6c-0.3,0.5-0.5,1.1-0.5,1.8s0.2,1.3,0.5,1.8
			c0.4,0.5,0.9,0.8,1.6,0.8s1.2-0.3,1.6-0.8c0.3-0.5,0.5-1.1,0.5-1.8c0-0.7-0.2-1.3-0.5-1.8c-0.4-0.5-0.9-0.8-1.6-0.8
			S1256.9,27,1256.5,27.6z"/>
		<path d="M1264.6,25.8v4.4c0,0.6,0.1,1.1,0.4,1.3c0.3,0.3,0.7,0.4,1.2,0.4c0.4,0,0.7-0.2,1.1-0.5c0.3-0.3,0.6-0.8,0.7-1.3v-4.4h1.5
			V33h-1.5v-1c-0.6,0.8-1.4,1.2-2.3,1.2c-1.8,0-2.6-1-2.6-2.9v-4.5H1264.6z"/>
		<path d="M1273.4,25.8h1.7V27h-1.7v4.2c0,0.2,0,0.3,0.1,0.4c0.1,0.1,0.2,0.1,0.4,0.1h1V33h-1.2c-0.6,0-1.1-0.2-1.4-0.5
			c-0.3-0.3-0.4-0.7-0.4-1.3V27h-1.3v-1.2h1.3V24l1.5-0.6V25.8z"/>
	</g>
</g>
</svg>
