<?xml version="1.0" encoding="utf-8"?>
<!-- Generator: Adobe Illustrator 22.0.0, SVG Export Plug-In . SVG Version: 6.00 Build 0)  -->
<svg version="1.1" id="圖層_1" xmlns="http://www.w3.org/2000/svg" xmlns:xlink="http://www.w3.org/1999/xlink" x="0px" y="0px"
	 viewBox="0 0 263 200" style="enable-background:new 0 0 263 200;" xml:space="preserve">
<style type="text/css">
	.st0{fill:#E8E8E8;}
	.st1{fill:#080808;}
	.st2{font-family:'PingFangHK-Medium-B5pc-H';}
	.st3{font-size:15px;}
	.st4{fill:#909090;}
	.st5{font-size:11px;}
</style>
<title>Rectangle 3</title>
<g>
	<path class="st0" d="M0,0h263v200H0V0z"/>
	<path d="M124.1,69.8l-1.1-1.1l7.4-7.7l7.6,7.7l-1.2,1.1l-5.5-5.5V89h-1.6V64.3C129.6,64.3,124.1,69.8,124.1,69.8z M144.9,62.1
		c2.3,0,4.2,0.8,5.8,2.5c1.6,1.7,2.4,3.7,2.4,6c0,2.3-0.8,4.2-2.4,5.9c-1.6,1.6-3.6,2.5-5.8,2.5h-10.1v-1.6h10.1
		c1.9,0,3.4-0.7,4.7-2c1.3-1.3,1.9-2.9,1.9-4.8s-0.7-3.5-2-4.9c-1.3-1.4-2.9-2.1-4.7-2.1l-1.5-0.1v-2c0-2.8-1-5.2-3-7.1
		c-2-1.9-4.4-2.9-7.2-2.9c-1.9,0-3.6,0.5-5.3,1.6c-1.6,1-2.9,2.5-3.8,4.2l-0.6,1.3l-1.4-0.6c-0.7-0.3-1.3-0.5-2-0.5
		c-1.1,0-2,0.4-2.9,1.1c-0.8,0.7-1.4,1.7-1.6,2.8l-0.1,0.9l-0.9,0.3c-1.5,0.5-2.7,1.4-3.6,2.7c-0.9,1.3-1.4,2.8-1.4,4.4
		c0,2.1,0.7,3.9,2.2,5.3c1.4,1.5,3.2,2.2,5.3,2.2h9.1V79H117c-2.5,0-4.7-0.9-6.4-2.6c-1.7-1.7-2.6-3.9-2.6-6.4c0-2,0.6-3.8,1.7-5.4
		c1.1-1.6,2.6-2.7,4.4-3.3c0.2-1.4,1-2.8,2.1-3.7c1.1-1,2.4-1.5,3.9-1.5c0.9,0,1.8,0.2,2.6,0.6c0.9-2,2.4-3.6,4.3-4.8
		c1.9-1.2,4-1.8,6.3-1.8c3.2,0,6,1.1,8.3,3.4c2.3,2.3,3.5,5,3.5,8.3v0.2L144.9,62.1L144.9,62.1z"/>
	<text transform="matrix(1 0 0 1 77.3333 109)" class="st1 st2 st3">Upload Image</text>
	<text transform="matrix(1 0 0 1 14.8033 138)" class="st4 st2 st5">File limit:︰1MB、only upload JPG、PNG file.</text>
</g>
</svg>
