<svg width="342" height="474" viewBox="0 0 342 474" xmlns="http://www.w3.org/2000/svg" xmlns:xlink="http://www.w3.org/1999/xlink"><title>Page 1</title><defs><path id="a" d="M0 474h341.593V.363H0z"/></defs><g fill="none" fill-rule="evenodd"><path fill="#231916" d="M238 221h10v-77h-10zm-36.83-86.481c3.564 4.27 5.344 9.533 5.344 15.777 0 5.21-1.225 9.784-3.682 13.73-2.457 3.947-5.966 6.928-10.529 8.945-4.563 2.02-10.867 3.05-18.908 3.094l20.832 44.38h-12.2l-20.49-44.38h-.017v-9.317l11.12.087c6.4 0 11.132-.602 14.201-1.818 3.07-1.211 5.467-3.15 7.186-5.816 1.72-2.665 2.579-5.642 2.579-8.936 0-3.206-.868-6.118-2.61-8.74-1.745-2.619-4.029-4.492-6.86-5.622-2.83-1.125-7.533-1.687-14.102-1.687H161.52v-9.36h4.116c10.65 0 17.866.437 21.648 1.302 5.692 1.303 10.325 4.09 13.885 8.36zm-97.566 45.248h.009l.912-1.935zM129.51 124.9l-10.606-.043-45.315 95.59h10.693zm36.467 95.547l-35.594-76.074-5.344 11.373 30.587 64.7zm-34.865-29.471l-4.555-9.555h-13.286l-4.485 9.555z"/><mask id="b" fill="#fff"><use xlink:href="#a"/></mask><path fill="#231916" mask="url(#b)" d="M216.633 134.214h51.372v-9.356h-51.372zM20.793 344.943h9.777v-76.372h-9.777zm126.979 0h9.583V249.35h-9.583zm184.235 0h9.586V249.35h-9.586zm-83.362 0h9.586V249.35h-9.586zm18.917 0h35.563v-9.36h-35.563zm0-86.238h35.568v-9.355h-35.568zm0 43.121h35.563v-9.36h-35.563zM75.315 304.26h.009l.911-1.934zm25.906-54.866l-10.606-.043-45.316 95.594h10.694zm36.467 95.549l-35.594-76.078-5.34 11.372 30.583 64.706zm-34.866-29.476l-4.554-9.55H84.982l-4.485 9.55zm131.148-56.402c-3.478-4.18-7.959-6.941-13.434-8.287-3.825-.952-11.214-1.428-22.169-1.428h-.39v9.356h7.823c6.478 0 11.141.567 13.985 1.692 2.848 1.12 5.14 3.011 6.882 5.673 1.737 2.657 2.605 5.586 2.605 8.784 0 3.289-.868 6.262-2.605 8.919-1.741 2.66-4.129 4.586-7.173 5.772-3.043 1.186-7.845 1.783-14.41 1.783l-7.107-.082v9.23c10.65-.06 18.048-.571 22.104-1.545 5.952-1.428 10.628-4.215 14.02-8.352 3.39-4.137 5.083-9.39 5.083-15.755 0-6.322-1.736-11.576-5.214-15.76m-45.129-9.715h-9.577v95.593h9.586zM0 258.71h51.372v-9.36H0zM247.238 99.007h45.08v-9.36h-45.08zm0-86.234h45.08V3.418h-45.08zm0 43.117h45.08v-9.36h-45.08zm-18.978 20.8l-46.152-52.98v14.181l53.456 61.114h2.153V3.416h-9.456z"/><path fill="#9F9FA0" mask="url(#b)" d="M172.308 3.416h-18.844l-5.74 9.355h15.066v76.883h-10.815v9.355h30.25v-9.355h-9.917z"/><path d="M153.603 97.386h26.993v-6.11h-9.917V5.037H154.38l-3.751 6.11h13.79v80.129h-10.816v6.11zm30.249 3.245h-33.506v-12.6h10.816V14.392h-16.338l7.728-12.601h21.383V88.03h9.917v12.601z" fill="#9F9FA0" mask="url(#b)"/><path d="M135.572 15.419c-6.695-5.86-16-8.274-24.77-7.417-1.15.113-2.292.294-3.43.48-1.832.303-3.747 1.134-5.505 1.731 6.395.346 12.482 2.142 18.248 5.44 6.443 3.687 11.44 8.598 14.992 14.73 3.543 6.136 5.319 12.995 5.319 20.585 0 7.629-1.776 14.565-5.319 20.81-3.551 6.244-8.492 11.164-14.827 14.764-6.335 3.596-13.225 5.396-20.671 5.396-11.145 0-20.667-3.912-28.569-11.74-7.906-7.823-11.853-17.417-11.853-28.776 0-7.677 1.785-14.635 5.353-20.88C73.471 14.918 89.184 5.74 106.595 2.555c.408-.074 1.428-.454 1.84-.307-2.292-.81-6.907-1.883-9.212-1.883-8.962 0-17.328 2.688-25.026 7.127-7.698 4.44-13.777 10.585-18.236 18.422-4.459 7.845-6.686 16.357-6.686 25.544 0 13.773 4.893 25.513 14.68 35.22 9.786 9.7 21.79 14.556 36.014 14.556 14.05 0 25.955-4.877 35.72-14.622 9.765-9.75 14.65-21.619 14.65-35.613 0-11.8-3.778-23.164-11.463-32.212a32.324 32.324 0 0 0-3.304-3.367m79.636 361.428h-18.844l-5.74 9.356h15.062v76.882h-10.815v9.356h30.249v-9.356h-9.912zm54.974 85.827c-3.43-1.688-6.1-4.09-8.007-7.213-1.914-3.116-2.865-6.43-2.865-9.94 0-5.673 2.231-10.65 6.703-14.912 3.2-3.055 6.96-4.998 11.254-5.868v-9.883c-2.852-.796-5.457-2.285-7.81-4.462-3.726-3.444-5.584-7.291-5.584-11.532 0-4.288 1.732-7.984 5.193-11.082 2.323-2.077 5.062-3.445 8.201-4.128v-9.317c-3.117.524-6.104 1.463-8.93 2.921-4.408 2.272-7.868 5.392-10.369 9.356-2.496 3.963-3.747 8.022-3.747 12.18 0 4.116 1.177 7.976 3.521 11.568 2.35 3.596 5.87 6.607 10.564 9.035-6.695 3.336-11.475 7.136-14.345 11.407-2.866 4.266-4.303 9.061-4.303 14.392 0 7.279 2.74 13.943 8.215 19.984 4.628 5.106 11.106 8.027 19.394 8.819v-9.187c-2.566-.394-4.945-1.082-7.085-2.138m40.212-32.294c-2.805-4.115-7.442-7.776-13.924-10.983 4.568-2.47 7.989-5.391 10.273-8.77 2.284-3.385 3.421-7.236 3.421-11.568 0-4.331-1.207-8.468-3.617-12.41-2.414-3.947-5.748-7.062-10.007-9.365-2.996-1.614-6.187-2.626-9.552-3.102v9.381c3.651.671 6.6 2.142 8.826 4.449 3.135 3.245 4.703 6.798 4.703 10.654 0 2.73-.795 5.452-2.384 8.156-1.59 2.71-3.803 4.843-6.63 6.4a18.772 18.772 0 0 1-4.515 1.779v9.58c4.32.766 8.127 2.71 11.419 5.83 4.363 4.14 6.543 8.87 6.543 14.197 0 5.509-2.063 10.316-6.187 14.427-3.11 3.107-7.034 5.037-11.775 5.799v9.122c8.588-.918 15.396-4.241 20.376-10.044 4.823-5.634 7.233-12.134 7.233-19.499 0-5.24-1.398-9.918-4.203-14.033m-184.54 30.929c-3.782-2.86-6.639-7.058-8.575-12.584-1.932-5.53-2.9-13.691-2.9-24.484 0-10.84.98-19.027 2.934-24.553 1.954-5.53 4.802-9.71 8.54-12.553 2.345-1.778 4.79-2.999 7.334-3.66v-9.317c-4.433.653-8.532 2.319-12.287 5.015-4.959 3.553-8.797 8.771-11.51 15.66-2.714 6.885-4.073 16.634-4.073 29.244 0 12.519 1.376 22.255 4.138 29.21 2.761 6.953 6.595 12.185 11.51 15.69 3.72 2.665 7.798 4.31 12.222 4.954v-8.935c-2.531-.675-4.976-1.904-7.333-3.687m40.524-66.02c-2.935-7.15-6.926-12.515-11.966-16.085-3.543-2.514-7.381-4.12-11.502-4.868v9.282c2.35.684 4.633 1.848 6.843 3.518 3.756 2.839 6.7 7.33 8.831 13.462 2.132 6.136 3.196 14.016 3.196 23.64 0 9.58-1.194 17.776-3.587 24.583-1.91 5.595-4.715 9.788-8.41 12.584-2.192 1.657-4.485 2.813-6.873 3.488v8.853c4.13-.757 7.994-2.388 11.567-4.928 5.088-3.618 9.074-8.98 11.966-16.085 2.891-7.105 4.337-16.656 4.337-28.66 0-12.042-1.467-21.64-4.402-28.784m-94.603 41.679c7.498-8.1 12.552-14.527 15.148-19.274 2.6-4.747 3.903-9.831 3.903-15.25 0-7.71-2.726-14.409-8.184-20.086-5.453-5.678-12.591-8.516-21.418-8.516-8.91 0-16.399 3.024-22.46 9.083-6.065 6.05-9.226 13.79-9.487 23.215h9.192c.564-7.365 2.883-13.08 6.947-17.157 4.06-4.068 9.16-6.106 15.287-6.106 5.827 0 10.746 1.939 14.77 5.82 4.017 3.882 6.032 8.512 6.032 13.886 0 4.25-1.12 8.291-3.36 12.125-2.237 3.839-7.074 9.728-14.507 17.664l-19.043 20.512h12.353l14.827-15.916zm-36.176 25.604l-8.606 9.27h65.14v-9.23z" fill="#231916" mask="url(#b)"/></g></svg>