<svg width="134" height="186" viewBox="0 0 134 186" xmlns="http://www.w3.org/2000/svg" xmlns:xlink="http://www.w3.org/1999/xlink"><title>Page 1</title><defs><path id="a" d="M0 186h133.45V.923H0z"/></defs><g fill="none" fill-rule="evenodd"><path fill="#231916" d="M93 87h4V57h-4zM78.59 53.345c1.393 1.67 2.089 3.726 2.089 6.166 0 2.035-.478 3.823-1.439 5.365-.96 1.542-2.33 2.707-4.113 3.495-1.783.79-4.245 1.192-7.387 1.209l8.139 17.342h-4.767L63.108 69.58H63.1v-3.64l4.344.033c2.5 0 4.35-.235 5.548-.71 1.2-.473 2.136-1.231 2.808-2.273.671-1.041 1.007-2.205 1.007-3.491a6.04 6.04 0 0 0-1.02-3.416c-.681-1.023-1.573-1.755-2.68-2.196-1.105-.44-2.942-.66-5.509-.66H63.1V49.57h1.608c4.16 0 6.98.17 8.457.509 2.224.509 4.034 1.598 5.425 3.266zM40.475 71.026h.004l.356-.755zm10.121-21.439l-4.144-.017L28.75 86.922h4.178zm14.246 37.336L50.937 57.196l-2.088 4.444 11.95 25.283zM51.221 75.407l-1.779-3.734h-5.19L42.5 75.407z"/><mask id="b" fill="#fff"><use xlink:href="#a"/></mask><path fill="#231916" mask="url(#b)" d="M84.632 53.226h20.07v-3.655h-20.07zM8.123 135.57h3.82v-29.843h-3.82zm49.607 0h3.744V98.216H57.73zm71.975 0h3.745V98.216h-3.745zm-32.567 0h3.745V98.216h-3.745zm7.39 0h13.894v-3.657h-13.894zm0-33.698h13.896v-3.656h-13.896zm0 16.85h13.894v-3.657h-13.894zm-75.105.951h.004l.356-.756zm10.121-21.439l-4.144-.017-17.703 37.354h4.178zM53.79 135.57l-13.905-29.728-2.086 4.444 11.948 25.284zm-13.62-11.518l-1.78-3.731H33.2l-1.752 3.731zm51.235-22.039c-1.359-1.634-3.109-2.713-5.248-3.238-1.494-.372-4.381-.558-8.66-.558h-.153v3.655H80.4c2.53 0 4.353.222 5.464.662 1.112.437 2.008 1.176 2.688 2.216a6.146 6.146 0 0 1 1.018 3.433c0 1.285-.34 2.447-1.018 3.485-.68 1.04-1.613 1.792-2.802 2.255-1.189.464-3.065.697-5.63.697l-2.776-.032v3.607c4.16-.024 7.05-.223 8.635-.604 2.325-.558 4.152-1.647 5.477-3.263 1.325-1.617 1.986-3.67 1.986-6.157 0-2.47-.678-4.523-2.037-6.158m-17.63-3.797h-3.742v37.354h3.745zM0 101.874h20.07v-3.658H0zM96.589 39.47H114.2v-3.658H96.59zm0-33.697H114.2V2.117H96.59zm0 16.848H114.2v-3.657H96.59zm-7.414 8.128l-18.03-20.702v5.54L92.027 39.47h.841V2.116h-3.694z"/><path fill="#9F9FA0" mask="url(#b)" d="M67.315 2.116h-7.361l-2.242 3.656h5.885v30.042h-4.225v3.656H71.19v-3.656h-3.875z"/><path d="M60.008 38.836h10.545v-2.388H66.68V2.75h-6.367l-1.466 2.387h5.387v31.311h-4.225v2.388zm11.818 1.268h-13.09V35.18h4.225V6.406h-6.383l3.02-4.924h8.353V35.18h3.875v4.924z" fill="#9F9FA0" mask="url(#b)"/><path d="M52.964 6.807c-2.616-2.29-6.25-3.233-9.677-2.899-.45.044-.896.115-1.34.188-.716.118-1.464.443-2.15.676 2.498.136 4.876.837 7.128 2.126 2.518 1.44 4.47 3.36 5.857 5.756 1.385 2.397 2.078 5.078 2.078 8.043 0 2.981-.693 5.692-2.078 8.132-1.387 2.44-3.317 4.363-5.792 5.77-2.475 1.405-5.167 2.108-8.076 2.108-4.354 0-8.074-1.529-11.16-4.588-3.09-3.057-4.631-6.805-4.631-11.244 0-3 .697-5.719 2.091-8.159 3.49-6.106 9.628-9.692 16.43-10.936.159-.03.558-.178.719-.12-.896-.317-2.699-.736-3.6-.736-3.5 0-6.77 1.05-9.777 2.785-3.007 1.735-5.382 4.136-7.124 7.198-1.742 3.066-2.612 6.392-2.612 9.981 0 5.383 1.912 9.97 5.735 13.763 3.823 3.79 8.513 5.688 14.07 5.688 5.489 0 10.14-1.906 13.955-5.714 3.814-3.81 5.723-8.447 5.723-13.916 0-4.61-1.476-9.051-4.478-12.587-.4-.47-.83-.911-1.291-1.315m31.111 141.23h-7.361l-2.243 3.656h5.885v30.042H76.13v3.656h11.818v-3.656h-3.873zm21.477 33.538c-1.34-.66-2.383-1.598-3.128-2.819-.748-1.217-1.12-2.513-1.12-3.884 0-2.217.873-4.161 2.62-5.827a8.763 8.763 0 0 1 4.396-2.293v-3.862c-1.114-.311-2.132-.893-3.051-1.743-1.456-1.346-2.182-2.85-2.182-4.506 0-1.676.677-3.12 2.029-4.33.908-.812 1.978-1.347 3.204-1.614v-3.64a11.817 11.817 0 0 0-3.489 1.14c-1.722.889-3.073 2.108-4.05 3.657-.976 1.548-1.464 3.135-1.464 4.76 0 1.608.46 3.116 1.375 4.52.918 1.404 2.294 2.581 4.127 3.53-2.615 1.304-4.483 2.788-5.604 4.457-1.12 1.667-1.681 3.54-1.681 5.624 0 2.844 1.07 5.448 3.21 7.809 1.807 1.995 4.338 3.136 7.576 3.446v-3.59c-1.002-.154-1.932-.423-2.768-.835m15.71-12.619c-1.096-1.608-2.907-3.039-5.44-4.292 1.785-.965 3.121-2.107 4.013-3.427.893-1.323 1.337-2.828 1.337-4.52 0-1.693-.472-3.31-1.413-4.85-.943-1.542-2.246-2.76-3.91-3.659a11.065 11.065 0 0 0-3.731-1.212v3.666c1.426.262 2.578.837 3.448 1.738 1.225 1.268 1.837 2.656 1.837 4.163 0 1.067-.31 2.13-.931 3.187a6.677 6.677 0 0 1-2.59 2.501 7.333 7.333 0 0 1-1.764.695v3.744c1.687.3 3.175 1.058 4.46 2.277 1.705 1.619 2.557 3.467 2.557 5.548 0 2.153-.806 4.031-2.417 5.638-1.215 1.214-2.748 1.968-4.6 2.266v3.564c3.355-.358 6.014-1.657 7.96-3.925 1.884-2.201 2.826-4.74 2.826-7.619 0-2.047-.546-3.875-1.642-5.483m-72.095 12.085c-1.477-1.117-2.593-2.758-3.35-4.917-.754-2.16-1.133-5.35-1.133-9.567 0-4.236.384-7.435 1.147-9.594.763-2.161 1.876-3.795 3.336-4.906.916-.695 1.871-1.171 2.865-1.43v-3.64a10.838 10.838 0 0 0-4.8 1.96c-1.937 1.387-3.437 3.427-4.497 6.118-1.06 2.69-1.59 6.5-1.59 11.428 0 4.891.537 8.696 1.616 11.413 1.079 2.718 2.576 4.762 4.496 6.132a10.753 10.753 0 0 0 4.775 1.936v-3.492c-.989-.264-1.944-.744-2.865-1.44m15.832-25.799c-1.147-2.793-2.706-4.89-4.675-6.285a11.107 11.107 0 0 0-4.493-1.902v3.627c.917.267 1.81.722 2.673 1.375 1.467 1.109 2.617 2.864 3.45 5.26.833 2.398 1.249 5.477 1.249 9.238 0 3.743-.467 6.946-1.402 9.606-.746 2.186-1.842 3.824-3.285 4.917-.857.647-1.752 1.099-2.685 1.363v3.46a11.213 11.213 0 0 0 4.519-1.927c1.987-1.413 3.545-3.508 4.674-6.285 1.13-2.776 1.695-6.508 1.695-11.199 0-4.705-.574-8.456-1.72-11.248M28.04 171.53c2.93-3.166 4.904-5.677 5.918-7.531a12.215 12.215 0 0 0 1.525-5.96c0-3.012-1.065-5.63-3.197-7.848-2.13-2.219-4.92-3.328-8.368-3.328-3.48 0-6.406 1.182-8.774 3.55-2.37 2.363-3.604 5.388-3.706 9.07h3.59c.221-2.877 1.127-5.11 2.715-6.704 1.586-1.59 3.579-2.385 5.972-2.385 2.276 0 4.198.757 5.77 2.274 1.57 1.517 2.356 3.326 2.356 5.426 0 1.66-.437 3.24-1.312 4.738-.874 1.5-2.764 3.801-5.667 6.902l-7.44 8.015h4.826l5.792-6.22zm-14.133 10.005l-3.362 3.622h25.449v-3.607z" fill="#231916" mask="url(#b)"/></g></svg>