<svg width="263" height="200" viewBox="0 0 263 200" xmlns="http://www.w3.org/2000/svg"><title>Rectangle 3</title><g fill="none" fill-rule="evenodd"><path fill="#E8E8E8" d="M0 0h263v200H0z"/><path d="M124.107 69.788L123 68.664 130.45 61l7.55 7.664-1.208 1.124-5.537-5.518V89h-1.61V64.27l-5.538 5.518zm20.757-7.705c2.277 0 4.202.84 5.776 2.518 1.573 1.678 2.36 3.692 2.36 6.041 0 2.283-.804 4.246-2.41 5.891-1.608 1.645-3.55 2.467-5.827 2.467h-10.145v-1.611h10.145c1.875 0 3.449-.655 4.721-1.964 1.273-1.309 1.909-2.903 1.909-4.783 0-1.88-.653-3.524-1.959-4.934-1.306-1.41-2.863-2.114-4.67-2.114l-1.507-.1v-2.015c0-2.82-.988-5.186-2.963-7.099-1.976-1.913-4.37-2.87-7.182-2.87-1.875 0-3.633.537-5.274 1.612a10.657 10.657 0 0 0-3.767 4.229l-.602 1.309-1.406-.604c-.67-.336-1.34-.504-2.01-.504-1.07 0-2.025.37-2.862 1.108-.837.738-1.356 1.678-1.557 2.82l-.1.905-.905.303c-1.473.47-2.678 1.376-3.616 2.718-.937 1.343-1.406 2.82-1.406 4.43 0 2.082.72 3.86 2.16 5.338 1.44 1.476 3.197 2.215 5.273 2.215h9.14V79h-9.14c-2.544 0-4.687-.873-6.428-2.618-1.741-1.745-2.612-3.894-2.612-6.445 0-2.013.57-3.81 1.708-5.387 1.138-1.577 2.611-2.668 4.42-3.272a6.473 6.473 0 0 1 2.058-3.726c1.105-1.007 2.394-1.51 3.868-1.51a5.74 5.74 0 0 1 2.611.604c.938-2.014 2.36-3.625 4.27-4.834 1.908-1.208 4-1.812 6.277-1.812 3.214 0 5.977 1.141 8.287 3.424 2.31 2.282 3.465 5.034 3.465 8.257v.2l-.1.202z" fill="#000"/><text font-family="PingFangTC-Semibold, PingFang TC" font-size="15" font-weight="500" letter-spacing=".064" fill="#080808"><tspan x="98" y="109">圖片上傳</tspan></text><text font-family="PingFangTC-Semibold, PingFang TC" font-size="11" font-weight="500" letter-spacing=".071" fill="#909090"><tspan x="31.47" y="138">檔案限制︰1MB、只可上傳JPG、PNG檔</tspan></text></g></svg>